<?xml version="1.0" standalone="no"?>
<!DOCTYPE svg PUBLIC "-//W3C//DTD SVG 20010904//EN"
 "http://www.w3.org/TR/2001/REC-SVG-20010904/DTD/svg10.dtd">
<svg version="1.0" xmlns="http://www.w3.org/2000/svg"
 width="16.000000pt" height="16.000000pt" viewBox="0 0 16.000000 16.000000"
 preserveAspectRatio="xMidYMid meet">
<metadata>
Created by potrace 1.11, written by Peter Selinger 2001-2013
</metadata>
<g transform="translate(0.000000,16.000000) scale(0.003125,-0.003125)"
fill="#000000" stroke="none">
<path d="M271 5019 l-31 -31 0 -172 c0 -137 3 -179 16 -204 8 -18 21 -33 27
-33 7 -1 462 -3 1012 -4 550 -1 1002 -4 1005 -5 3 -1 25 -4 50 -6 25 -1 72 -8
105 -14 33 -6 67 -11 75 -12 8 0 20 -4 25 -8 6 -4 18 -6 28 -5 9 2 17 -1 17
-6 0 -6 6 -9 13 -7 13 3 67 -16 110 -38 15 -9 27 -12 27 -7 0 4 4 3 8 -2 4 -6
31 -21 60 -35 30 -13 66 -34 80 -47 14 -12 28 -21 30 -19 2 2 14 -6 26 -18 13
-11 42 -38 65 -59 22 -20 41 -40 41 -43 0 -3 15 -23 33 -44 18 -22 39 -52 47
-67 8 -15 22 -39 31 -53 24 -37 81 -209 75 -225 -3 -8 -1 -17 3 -19 32 -20 26
-388 -6 -440 -4 -6 -8 -15 -9 -21 -7 -30 -42 -115 -62 -146 -12 -20 -22 -41
-22 -47 0 -5 -7 -13 -16 -16 -9 -4 -14 -9 -11 -13 4 -3 -6 -17 -21 -31 -15
-14 -26 -29 -25 -32 1 -4 -14 -22 -32 -40 -19 -19 -35 -31 -35 -27 0 4 -13 -7
-30 -25 -16 -17 -30 -27 -30 -22 0 5 -4 4 -8 -1 -10 -15 -66 -50 -74 -47 -5 1
-8 -3 -8 -9 0 -5 -4 -7 -10 -4 -5 3 -10 2 -10 -4 0 -5 -10 -13 -22 -16 -41
-12 -98 -39 -98 -46 0 -4 -8 -9 -18 -11 -18 -5 -86 -121 -76 -131 3 -3 2 -12
-2 -19 -11 -18 -13 -58 -3 -58 5 0 8 -10 8 -22 -2 -29 17 -78 31 -78 5 0 10
-6 10 -13 0 -27 73 -80 128 -92 18 -3 32 -11 32 -17 0 -6 6 -8 14 -5 8 3 25
-4 39 -17 13 -12 29 -20 35 -18 7 2 12 -1 12 -8 0 -6 4 -8 10 -5 6 3 10 1 10
-5 0 -6 11 -15 25 -20 14 -5 25 -14 25 -20 0 -6 4 -9 8 -6 11 7 152 -138 189
-194 40 -61 95 -172 88 -178 -2 -3 -1 -10 4 -16 21 -26 41 -125 44 -221 1 -33
6 -66 10 -73 5 -7 5 -22 1 -35 -4 -12 -9 -49 -10 -82 -4 -93 -25 -223 -41
-248 -4 -7 -9 -21 -10 -32 -6 -37 -93 -201 -128 -240 -20 -22 -43 -51 -51 -65
-15 -24 -47 -50 -143 -117 -25 -18 -53 -38 -61 -45 -8 -7 -15 -11 -16 -8 0 3
-16 -3 -35 -12 -69 -34 -103 -46 -111 -42 -4 3 -8 1 -8 -4 0 -9 -88 -33 -122
-33 -10 0 -18 -5 -18 -10 0 -5 -11 -7 -25 -5 -13 3 -27 0 -31 -5 -3 -5 -26 -8
-50 -6 -25 2 -47 0 -50 -5 -3 -4 -390 -8 -860 -8 l-854 0 -1 43 c0 23 0 80 1
127 0 47 1 90 1 95 0 11 0 550 0 575 0 8 0 80 0 160 0 80 -1 152 0 160 0 8 0
58 0 110 -1 52 -1 103 -1 113 1 9 1 118 1 242 0 124 0 232 0 240 0 8 0 116 0
240 0 124 0 233 0 243 0 9 -1 87 -1 172 -1 85 -1 167 0 181 l0 26 238 -3 c432
-5 481 -8 540 -34 28 -12 52 -26 52 -31 0 -5 5 -9 10 -9 10 0 80 -65 80 -74 0
-3 10 -22 22 -43 12 -20 24 -42 25 -48 17 -70 23 -116 17 -145 -4 -19 -8 -39
-9 -45 -4 -32 -46 -115 -57 -115 -5 0 -7 -4 -4 -9 5 -7 -48 -60 -89 -89 -15
-11 -70 -34 -71 -30 0 1 -8 -3 -16 -9 -8 -7 -34 -11 -62 -9 -25 2 -49 -1 -52
-6 -3 -4 -16 -8 -29 -8 -13 0 -37 -6 -52 -12 -36 -16 -114 -88 -107 -99 3 -5
0 -9 -7 -9 -6 0 -9 -8 -6 -20 3 -10 0 -21 -6 -23 -26 -8 1 -193 30 -204 7 -3
13 -11 13 -19 0 -7 6 -17 13 -21 13 -8 107 -130 107 -138 0 -3 8 -14 18 -24 9
-11 27 -32 39 -48 12 -15 40 -51 62 -80 23 -29 41 -56 41 -60 0 -5 9 -14 20
-21 11 -7 20 -17 20 -23 0 -6 30 -47 66 -90 36 -43 63 -79 60 -79 -3 0 2 -8
12 -18 9 -10 26 -31 37 -46 11 -16 42 -55 68 -87 26 -33 46 -59 43 -59 -3 0
10 -16 28 -36 l33 -36 247 1 c228 0 249 1 261 18 8 10 13 29 12 43 -3 31 -34
90 -47 90 -6 0 -10 5 -10 11 0 6 -18 33 -40 59 -22 26 -40 50 -40 54 0 5 -20
31 -45 60 -6 6 -40 49 -75 96 -36 47 -68 87 -72 88 -5 2 -8 9 -8 16 0 7 -11
21 -24 32 -14 10 -23 21 -20 26 3 4 2 8 -3 8 -4 1 -24 24 -43 52 -19 28 -43
58 -52 66 -10 9 -18 21 -18 27 0 6 -10 21 -23 35 -12 14 -37 43 -54 66 l-32
41 29 21 c16 12 32 22 34 22 19 0 175 149 193 185 9 17 19 32 22 35 17 14 69
112 81 153 8 26 17 47 20 47 3 0 7 10 8 23 3 41 8 67 15 73 4 4 7 31 7 60 0
29 4 55 9 58 5 3 7 14 5 24 -3 9 -8 53 -13 97 -5 44 -12 91 -15 105 -4 14 -8
30 -10 35 -16 66 -57 165 -67 165 -5 0 -9 5 -9 11 0 38 -148 212 -220 259 -13
8 -31 22 -41 32 -9 9 -20 13 -24 10 -3 -4 -9 -2 -13 3 -6 9 -98 58 -112 60
-19 4 -96 30 -100 35 -9 10 -66 11 -610 13 l-545 2 -42 -29 c-45 -30 -103
-113 -103 -146 0 -10 -5 -22 -10 -25 -14 -9 -14 -3255 0 -3255 6 0 10 -9 10
-20 0 -50 85 -153 137 -166 13 -4 23 -10 23 -15 0 -5 430 -9 1021 -9 673 0
1018 3 1014 10 -3 5 4 10 17 9 13 0 43 2 68 6 25 3 52 6 60 6 8 1 39 8 68 15
30 7 57 13 60 12 4 -1 25 4 47 10 22 6 42 11 45 11 8 0 158 57 225 85 33 14
61 30 63 35 2 6 9 11 16 11 7 0 30 11 50 25 20 13 36 22 36 19 0 -2 6 0 13 6
6 6 36 29 66 50 29 22 50 40 46 40 -4 0 7 10 26 23 32 22 119 105 119 113 0 4
30 42 106 137 8 9 14 20 14 24 0 3 13 27 29 53 16 27 27 51 24 54 -4 3 -2 6 3
6 9 0 35 57 40 89 2 8 7 17 12 20 5 3 13 22 17 41 4 19 10 39 13 45 3 5 7 16
8 25 3 19 9 40 17 60 8 22 31 161 30 188 0 12 3 22 7 22 3 0 6 93 5 208 -1
114 -3 207 -5 207 -1 0 -4 16 -5 35 -1 19 -5 42 -9 51 -4 9 -6 20 -5 25 1 5 0
16 -4 24 -3 8 -9 29 -13 45 -4 17 -9 37 -11 45 -3 8 -6 22 -7 30 -2 8 -11 32
-20 52 -9 21 -16 42 -16 48 0 5 -5 10 -11 10 -6 0 -9 9 -6 20 3 11 2 20 -2 20
-7 0 -32 44 -36 60 0 3 -12 23 -26 45 -15 22 -27 45 -28 50 -1 6 -9 14 -17 18
-8 4 -14 13 -14 19 0 16 -84 112 -167 193 l-73 70 56 58 c31 31 54 57 51 57
-3 0 4 11 16 24 59 66 67 76 67 85 0 6 8 15 18 20 9 6 13 11 9 11 -5 0 1 12
12 26 12 15 21 33 21 40 0 8 4 14 10 14 5 0 9 3 8 8 0 4 11 32 25 62 14 30 27
62 29 70 2 8 5 17 8 20 6 5 32 83 37 110 1 8 9 44 18 80 8 36 15 82 15 102 0
20 4 39 8 42 13 8 2 328 -13 384 -8 27 -14 63 -16 92 0 8 -3 22 -6 30 -4 8 -7
22 -7 30 -1 8 -4 20 -7 25 -5 8 -37 106 -44 135 -4 19 -99 196 -106 198 -5 2
-9 10 -9 18 0 8 -4 14 -10 14 -5 0 -10 5 -10 11 0 13 -97 134 -147 185 -18 18
-70 63 -115 99 -46 36 -88 70 -95 75 -7 6 -16 10 -21 10 -5 0 -21 9 -36 21
-14 11 -26 17 -26 12 0 -4 -4 -3 -8 2 -9 13 -104 61 -114 57 -4 -1 -8 2 -8 8
0 5 -8 10 -18 10 -10 0 -27 6 -37 14 -11 8 -25 12 -32 9 -7 -3 -13 0 -13 7 0
7 -8 10 -20 7 -11 -3 -20 -1 -20 3 0 7 -59 25 -115 34 -11 2 -21 5 -22 6 -2 1
-11 3 -20 4 -10 1 -23 4 -29 8 -6 4 -41 10 -78 14 -36 4 -68 10 -71 13 -2 4
-36 6 -74 5 -39 -1 -71 2 -71 7 0 5 -425 9 -1009 9 l-1009 0 -31 -31z"/>
<path d="M4570 5041 c0 -7 -6 -11 -15 -7 -8 3 -15 0 -16 -7 -5 -78 -3 -256 3
-269 5 -10 15 -14 27 -11 17 4 19 14 17 84 -1 44 1 82 3 85 3 3 13 -19 24 -48
10 -29 19 -57 21 -63 2 -5 7 -20 11 -32 14 -45 84 -22 76 25 -1 6 3 12 10 12
6 0 9 6 6 13 -3 7 1 21 9 32 8 10 14 28 14 39 0 13 3 17 8 9 4 -6 7 -43 6 -81
-2 -67 -1 -70 22 -75 17 -3 24 0 25 12 1 9 2 73 2 143 2 119 1 127 -18 130
-11 2 -31 1 -45 -3 -14 -4 -22 -7 -19 -8 11 -2 -49 -165 -62 -170 -7 -2 -9 1
-5 8 4 6 3 11 -2 11 -4 0 -14 24 -21 53 -8 28 -18 57 -23 64 -5 7 -8 16 -5 20
6 11 -19 34 -27 25 -4 -3 -11 0 -16 8 -8 12 -10 12 -10 1z"/>
<path d="M4294 5031 c-2 -2 -4 -17 -4 -33 0 -26 2 -28 43 -28 l43 0 -1 -110
-1 -110 26 0 27 0 -2 98 c-1 53 1 103 3 110 2 7 21 12 43 12 37 0 39 1 39 33
l0 32 -106 0 c-58 0 -108 -2 -110 -4z"/>
<path d="M4386 604 c-9 -8 -17 -18 -17 -22 -7 -31 -3 -392 4 -392 5 0 7 -6 5
-12 -11 -33 18 -38 231 -38 181 0 211 2 211 15 0 8 5 15 10 15 6 0 10 76 10
209 0 206 0 210 -22 225 -33 24 -409 23 -432 0z"/>
</g>
</svg>
